<svg width="250" height="57" viewBox="0 0 250 57" fill="none" xmlns="http://www.w3.org/2000/svg">
<g clip-path="url(#clip0_8935_50)">
<path d="M5.376 21.984H11.296C12.7253 21.984 13.8027 22.2613 14.528 22.816C15.2533 23.3707 15.7333 24.1707 15.968 25.216C16.2027 26.24 16.32 27.6267 16.32 29.376C16.32 31.0613 16.2027 32.4267 15.968 33.472C15.7547 34.496 15.2853 35.3067 14.56 35.904C13.8347 36.5013 12.7467 36.8 11.296 36.8H9.248V44H5.376V21.984ZM10.656 33.312C11.2107 33.312 11.6053 33.216 11.84 33.024C12.096 32.8107 12.256 32.448 12.32 31.936C12.4053 31.424 12.448 30.5707 12.448 29.376C12.448 28.1813 12.4053 27.328 12.32 26.816C12.256 26.304 12.096 25.952 11.84 25.76C11.6053 25.568 11.2107 25.472 10.656 25.472H9.248V33.312H10.656ZM25.0628 44L24.3268 39.168H20.5508L19.8148 44H16.0068L19.6228 21.984H25.3188L28.9668 44H25.0628ZM22.5348 25.952H22.3428L20.9348 35.776H23.9427L22.5348 25.952ZM38.1468 44L36.2908 36.16H36.2268H34.4668V44H30.5948V21.984H36.6428C38.0721 21.984 39.1388 22.2507 39.8428 22.784C40.5681 23.3173 41.0481 24.0747 41.2828 25.056C41.5174 26.0373 41.6348 27.3707 41.6348 29.056C41.6348 30.72 41.5174 32.0533 41.2828 33.056C41.0481 34.0373 40.5468 34.784 39.7788 35.296L42.1148 44H38.1468ZM36.0028 32.768C36.5574 32.768 36.9521 32.6827 37.1868 32.512C37.4428 32.32 37.6028 31.9787 37.6667 31.488C37.7521 30.9973 37.7948 30.208 37.7948 29.12C37.7948 28.032 37.7521 27.2427 37.6667 26.752C37.6028 26.2613 37.4428 25.9307 37.1868 25.76C36.9521 25.568 36.5574 25.472 36.0028 25.472H34.4668V32.768H36.0028ZM51.521 44L48.961 34.688H47.873V44H44.001V21.984H47.873V31.008H48.961L51.585 21.984H55.521L51.969 32.608L55.553 44H51.521ZM57.126 44V21.984H65.894V25.472H60.998V31.136H65.286V34.624H60.998V40.512H65.894V44H57.126ZM76.4453 43.744C76.0826 43.8933 75.6133 44.0107 75.0373 44.096C74.4826 44.2027 73.9599 44.256 73.4693 44.256C71.7839 44.256 70.5466 43.936 69.7573 43.296C68.9679 42.6347 68.4453 41.5467 68.1893 40.032C67.9333 38.496 67.8053 36.1493 67.8053 32.992C67.8053 29.8773 67.9333 27.552 68.1893 26.016C68.4666 24.4587 68.9999 23.36 69.7893 22.72C70.5786 22.0587 71.8053 21.728 73.4693 21.728C74.0453 21.728 74.5999 21.7707 75.1333 21.856C75.6879 21.9413 76.1039 22.0587 76.3813 22.208V25.44C75.5493 25.2907 74.8133 25.216 74.1733 25.216C73.3413 25.216 72.7546 25.376 72.4133 25.696C72.0933 25.9947 71.8799 26.6453 71.7733 27.648C71.6879 28.6507 71.6453 30.432 71.6453 32.992C71.6453 35.552 71.6879 37.3333 71.7733 38.336C71.8799 39.3387 72.0933 40 72.4133 40.32C72.7546 40.6187 73.3413 40.768 74.1733 40.768C74.9839 40.768 75.7413 40.6933 76.4453 40.544V43.744ZM78.565 44V21.984H82.405V44H78.565ZM78.885 19.104V16H82.053V19.104H78.885ZM97.5843 44L95.7283 36.16H95.6643H93.9043V44H90.0323V21.984H96.0803C97.5096 21.984 98.5763 22.2507 99.2803 22.784C100.006 23.3173 100.486 24.0747 100.72 25.056C100.955 26.0373 101.072 27.3707 101.072 29.056C101.072 30.72 100.955 32.0533 100.72 33.056C100.486 34.0373 99.9843 34.784 99.2163 35.296L101.552 44H97.5843ZM95.4403 32.768C95.9949 32.768 96.3896 32.6827 96.6243 32.512C96.8803 32.32 97.0403 31.9787 97.1042 31.488C97.1896 30.9973 97.2323 30.208 97.2323 29.12C97.2323 28.032 97.1896 27.2427 97.1042 26.752C97.0403 26.2613 96.8803 25.9307 96.6243 25.76C96.3896 25.568 95.9949 25.472 95.4403 25.472H93.9043V32.768H95.4403ZM111.407 44L110.671 39.168H106.895L106.159 44H102.351L105.967 21.984H111.663L115.311 44H111.407ZM108.879 25.952H108.687L107.279 35.776H110.286L108.879 25.952ZM129.995 44V26.976H129.771L127.211 44H123.339L120.843 26.976H120.587V44H116.939V21.984H122.923L125.291 38.208H125.515L127.883 21.984H133.707V44H129.995ZM144.469 44L143.733 39.168H139.957L139.221 44H135.413L139.029 21.984H144.725L148.373 44H144.469ZM141.941 25.952H141.749L140.341 35.776H143.349L141.941 25.952ZM149.393 44V40.736L155.249 25.472H149.553V21.984H159.377V25.216L153.489 40.512H159.409V44H149.393ZM169.563 44L168.827 39.168H165.051L164.315 44H160.507L164.123 21.984H169.819L173.467 44H169.563ZM167.035 25.952H166.843L165.435 35.776H168.443L167.035 25.952ZM182.967 44L178.903 31.584H178.775V44H175.095V21.984H178.743L182.551 33.536H182.743V21.984H186.391V44H182.967ZM204.978 21.984V34.304C204.978 37.2267 204.882 39.328 204.69 40.608C204.498 41.8667 204.018 42.7947 203.25 43.392C202.482 43.968 201.202 44.256 199.41 44.256C197.618 44.256 196.338 43.968 195.57 43.392C194.802 42.7947 194.322 41.8667 194.13 40.608C193.938 39.328 193.842 37.2267 193.842 34.304V21.984H197.682V35.808C197.682 37.4507 197.714 38.592 197.778 39.232C197.842 39.8507 197.98 40.2667 198.194 40.48C198.428 40.672 198.834 40.768 199.41 40.768C199.986 40.768 200.38 40.672 200.594 40.48C200.828 40.2667 200.978 39.8507 201.042 39.232C201.106 38.6133 201.138 37.472 201.138 35.808V21.984H204.978ZM211.947 44.256C211.2 44.256 210.389 44.2027 209.515 44.096C208.64 44.0107 207.893 43.8827 207.275 43.712V40.544C208.832 40.6933 210.037 40.768 210.891 40.768C211.488 40.768 211.947 40.736 212.267 40.672C212.587 40.5867 212.843 40.4373 213.035 40.224C213.333 39.8613 213.483 39.072 213.483 37.856C213.483 36.9173 213.44 36.256 213.355 35.872C213.291 35.488 213.141 35.2107 212.907 35.04C212.672 34.848 212.245 34.688 211.627 34.56L209.067 34.016C208.256 33.8453 207.701 33.2907 207.403 32.352C207.104 31.4133 206.955 30.048 206.955 28.256C206.955 26.528 207.168 25.1947 207.595 24.256C208.021 23.296 208.629 22.6347 209.419 22.272C210.229 21.9093 211.264 21.728 212.523 21.728C213.483 21.728 214.347 21.792 215.115 21.92C215.904 22.048 216.405 22.1547 216.619 22.24V25.44C216.405 25.3973 216.011 25.3547 215.435 25.312C214.88 25.248 214.283 25.216 213.643 25.216C212.96 25.216 212.427 25.2693 212.043 25.376C211.68 25.4613 211.413 25.6107 211.243 25.824C211.072 26.0373 210.955 26.3147 210.891 26.656C210.848 26.9973 210.827 27.488 210.827 28.128C210.827 28.8747 210.848 29.4187 210.891 29.76C210.955 30.08 211.072 30.3147 211.243 30.464C211.413 30.6133 211.691 30.7307 212.075 30.816L214.283 31.328C214.944 31.456 215.488 31.68 215.915 32C216.363 32.32 216.715 32.8747 216.971 33.664C217.205 34.432 217.323 35.6053 217.323 37.184C217.323 39.1253 217.12 40.608 216.715 41.632C216.331 42.656 215.755 43.3493 214.987 43.712C214.24 44.0747 213.227 44.256 211.947 44.256ZM221.648 44V25.536H218.224V21.984H228.944V25.536H225.52V44H221.648ZM237.282 44L236.546 39.168H232.77L232.034 44H228.226L231.842 21.984H237.538L241.186 44H237.282ZM234.754 25.952H234.562L233.154 35.776H236.161L234.754 25.952Z" fill="#241B18"/>
</g>
<defs>
<clipPath id="clip0_8935_50">
<rect width="250" height="57" fill="white"/>
</clipPath>
</defs>
</svg>
